<svg version="1.0" xmlns="http://www.w3.org/2000/svg" width="682.667" height="682.667" viewBox="0 0 512 512"><g><path d="M339 18c-11.5 3.2-17.9 5.5-18.8 6.7-2.2 3.1-2.5 6.2-.8 8.9 3 4.4 5.6 4.9 14 2.6l7.6-2-1.1 2.1c-2.5 4.7-18.5 27.7-26.3 37.6-56.4 72.4-138.8 136.9-216.2 169.4-20.5 8.5-59.6 20.7-66.7 20.7-1 0-2.9 1.1-4.2 2.5-3.3 3.3-3.3 7.8.1 11.2 2.3 2.3 3 2.5 7.6 1.9 7.8-1.1 26.7-6.1 42.8-11.5C146 245 216 199.9 277.1 139c29.1-28.9 54.2-59.3 70.9-85.7 3.6-5.6 6.8-10.3 7.1-10.3.4 0 1.4 3 2.3 6.7 2 8 4.7 11.3 9 11.3 3.7-.1 6.2-1.8 7.5-5.2.8-2.1 0-6.2-3.5-19.5-5.1-19.2-5.7-20.7-9.1-22.2-3.1-1.4-2.2-1.6-22.3 3.9zM322.5 130.5l-2.5 2.4V300h44.8l.4-19.8c.4-19.5.5-19.8 3.8-28.7 3.2-8.5 6.8-14.5 12.5-20.8l2.5-2.8v-95l-2.5-2.4-2.4-2.5h-54.2l-2.4 2.5zM428 224l-5.4.5-1.3 7.4c-2.1 12.7-7.4 14.8-18.1 7.3l-5.9-4.1-4.3 4.4c-4.6 4.6-4.6 4.6.1 10.6 1.6 2 2.6 3.9 2.2 4.3-.3.3-.2.6.3.6s.8 1.9.7 4.2c-.1 5.2-2.4 7.3-9 8.3-9.7 1.4-9.3 1-9.3 8v6.3l3.8.6c3.5.5 7.2 1.1 9.9 1.4 4.7.6 7 9.5 3.4 13.1-1.1 1.1-1.7 2.1-1.5 2.4.3.2-.8 1.7-2.3 3.3-1.6 1.6-2.8 3.4-2.8 3.9 0 1.4 7.5 8.9 9.1 9.1.7.1 1.5-.5 1.8-1.3.3-.8 1-1.1 1.6-.8.6.3 1.3-.1 1.6-.9 1.4-3.7 12.4-7.4 12.4-4.2 0 .5.3.7.6.3.7-.7 2.9 1.2 3.3 2.8.2.5.6 1.4 1.1 2 .4.5 1.1 3.6 1.5 6.7l.7 5.8h6.3c7.1 0 6.4.7 8.1-9.5.7-4.7 3.1-8.8 4.4-8 .6.4 1 .2 1-.3 0-2.3 7.2-.4 12.5 3.2l5.6 3.9 4.4-4.3 4.4-4.4-3.5-4.9c-5.1-7.1-5.8-9.4-3.9-13.4.9-1.8 2-3.1 2.5-2.8.5.3 1.5-.2 2.4-1.1.9-.9 2.4-1.3 3.5-.9 1.1.3 2.2.1 2.6-.5.4-.6 1.9-.9 3.3-.5 3.6.7 4.9-1.6 4.4-8.2l-.4-5.2-7-1.1c-8.3-1.4-11.9-4-12-8.7-.1-3.3 3.6-9.9 7.2-13 1.8-1.6 1.8-1.8-1.2-5.2-5.7-6.5-5.9-6.5-12.4-1.9-10.4 7.5-15.7 5.3-18.1-7.3-.7-4.1-1.7-7.6-2.1-7.9-.4-.3-3.2-.3-6.2 0zm4.3 44.1c4.9 2.2 6.1 8.6 2.2 12.4-4.8 4.9-13.5 1.8-13.5-4.7 0-6.8 5.4-10.4 11.3-7.7zM226.5 226.5l-2.5 2.4v113.5l11.8-11.5c16-15.8 27.6-22.8 46.5-28.5l5.7-1.7v-71.8l-2.5-2.4-2.4-2.5h-54.2l-2.4 2.5zM130.5 290.5l-2.5 2.4v198.2l2.5 2.4 2.4 2.5h54.2l2.4-2.5 2.5-2.4V292.9l-2.5-2.4-2.4-2.5h-54.2l-2.4 2.5zM293.5 315.2c-.2.7-1.1 5.3-1.9 10.3-1.9 12.2-2.3 13.5-4.1 15.5-2.3 2.5-6.3 3.4-8.2 1.8-.9-.7-1.7-1.1-1.7-.8-.2.9-12.6-8.3-12.6-9.3 0-.6-.3-.7-.6-.4-.4.3-1.8-.3-3.2-1.4l-2.6-2-9.3 9.3c-5.1 5.1-9.3 9.6-9.3 10.1 0 .4 1.8 3.2 3.9 6.1 2.2 3 3.7 5.6 3.4 6-.4.3-.2.6.4.6 1.7 0 6.3 7.4 6.3 10.2 0 1.4-1.1 3.7-2.5 5.2s-2.5 2.4-2.5 2c0-.3-.6-.2-1.2.4-.7.5-3.8 1.3-6.8 1.7-3 .5-6.4.9-7.5 1.1-1.1.2-3.9.6-6.2 1l-4.3.7v26.5l2.8.6c1.5.3 7 1.2 12.2 2.1 10.2 1.7 14 3.1 14 5.2 0 .7.4 1.3.9 1.3s.7 1.6.6 3.6c-.4 3.5-3.1 8.2-10.8 18.5l-3.5 4.6 9.7 9.5 9.6 9.5 10.4-7.3c6.1-4.4 11.4-7.4 12.8-7.4 1.3 0 3.7 1.2 5.2 2.7 2.3 2.4 3 4.5 4.5 13.3 1 5.8 2 11.3 2.2 12.2.5 1.6 2.1 1.8 14.6 1.8h14l-.6-2.6c-.4-1.4-.2-3.2.4-4 .7-.7.9-1.7.6-2.2-.5-.8.4-8.1 1.9-14.9.8-3.4 4.4-6.3 7.4-5.9 3.9.5 8.1 2.4 8.1 3.6 0 .6.4.9.9.5.6-.3 1.4.3 2 1.2.6 1 1.1 1.5 1.1 1 0-.4 2.8 1.3 6.2 3.8 3.4 2.5 6.5 4.5 6.8 4.5.3 0 4.6-4.1 9.5-9.1 10.2-10.4 10.2-7.9.1-22.1-4.4-6.1-6-9.2-6-11.6 0-3.9 2.9-7.2 7-7.8 1.6-.3 4.3-.7 5.9-1 1.7-.3 4.1-.5 5.5-.5 1.4-.1 3-.5 3.6-1 .6-.5 1.9-.7 2.8-.3 3.8 1.5 4.6-1.2 4.6-15.1v-13.2l-11.2-1.7c-6.2-1-11.9-2.2-12.5-2.8-.7-.6-1.3-.7-1.3-.3 0 .4-.7.2-1.5-.5s-1.2-1.6-.9-2.1c.3-.5.1-.9-.4-.9s-.9-1.6-.9-3.5.4-3.5.9-3.5.6-.5.3-1c-.3-.6-.1-1 .4-1 .6 0 1.1-.6 1.1-1.4 0-.7 1.1-2.5 2.5-4s2.5-3.1 2.5-3.7c0-.5.5-.9 1-.9.6 0 1-.7 1-1.5 0-.7.8-1.9 1.8-2.4.9-.6 1.3-1.1.8-1.1s-.2-.8.6-1.8c1.4-1.6.7-2.4-7.8-10.5-5.1-4.8-9.9-8.7-10.7-8.7-.7 0-4.7 2.5-8.8 5.6-9.8 7.4-13.2 8.9-17.1 7.3-4-1.6-5.2-4.6-7.3-17.7l-1.9-11.2h-13.3c-9.8 0-13.5.3-13.8 1.2zm22.4 55.5c13.7 4.4 21.8 19.6 17.7 33.5-2 7.1-6.4 13-12.2 16.4-6.2 3.6-17.2 4.5-24.1 1.9-10.4-4-17.3-14-17.3-25.1 0-12.9 6.6-22.5 18.4-26.6 6.4-2.2 11-2.2 17.5-.1zM34.5 322.5l-2.5 2.4v166.2l2.5 2.4 2.4 2.5h54.2l2.4-2.5 2.5-2.4V324.9l-2.5-2.4-2.4-2.5H36.9l-2.4 2.5z"/></g></svg>