<svg version="1.0" xmlns="http://www.w3.org/2000/svg" width="682.667" height="682.667" viewBox="0 0 512 512"><g><path d="M350 18c-11.5 3.2-17.9 5.5-18.8 6.7-2.2 3.1-2.5 6.2-.8 8.9 3 4.4 5.6 4.9 14 2.6l7.6-2-1.1 2.1c-2.5 4.7-18.5 27.7-26.3 37.6-56.4 72.4-138.8 136.9-216.2 169.4-20.5 8.5-59.6 20.7-66.7 20.7-1 0-2.9 1.1-4.2 2.5-3.3 3.3-3.3 7.8.1 11.2 2.3 2.3 3 2.5 7.6 1.9 7.8-1.1 26.7-6.1 42.8-11.5C157 245 227 199.9 288.1 139c29.1-28.9 54.2-59.3 70.9-85.7 3.6-5.6 6.8-10.3 7.1-10.3.4 0 1.4 3 2.3 6.7 2 8 4.7 11.3 9 11.3 3.7-.1 6.2-1.8 7.5-5.2.8-2.1 0-6.2-3.5-19.5-5.1-19.2-5.7-20.7-9.1-22.2-3.1-1.4-2.2-1.6-22.3 3.9zM333.5 130.5l-2.5 2.4v66.6c0 53 .3 66.5 1.3 65.9.6-.4 3.5-2.2 6.2-4 15.6-9.8 29.1-14.3 45.8-15.1l10.7-.6V132.9l-2.5-2.4-2.4-2.5h-54.2l-2.4 2.5zM237.5 226.5l-2.5 2.4V426h14.6l16.4-16.6c9.1-9.1 20.3-20 24.8-24.2 9.5-8.7 9.2-7.3 5.3-23.2-3.3-13.7-2.5-35.6 1.8-46.3.7-1.9 1.1-16.2 1.1-44.8v-42l-2.5-2.4-2.4-2.5h-54.2l-2.4 2.5z"/><path d="M375 259.7c-4.6.8-19.5 6.4-22 8.2-1.4 1-4.1 2.6-6 3.6-6.1 3.1-20.9 17.5-23.7 23-.8 1.6-2.5 4.3-3.8 6-1.2 1.6-3.3 5.9-4.5 9.5-1.3 3.6-2.7 7-3.2 7.7-1.6 2.1-3.7 16.5-3.8 25.6 0 10.1 1.6 21.8 3.5 26.2.8 1.6 2 4.6 2.8 6.6l1.5 3.6-27 26.9c-14.8 14.8-27.6 28.1-28.4 29.6-1.4 2.8-1.7 9.5-.6 13.6 1 3.3 23.9 26.1 28 27.8 4 1.6 10.8 1.9 11.7.4.3-.5 1.4-1 2.3-1 .9 0 14-12.3 29.1-27.4l27.4-27.4 3.6 1.5c2 .8 5 2 6.6 2.8 4.1 1.8 17 3.5 26.8 3.5 8.6-.1 23-2.2 25-3.8.7-.5 4.1-1.9 7.7-3.2 3.6-1.2 7.9-3.3 9.5-4.5 1.7-1.3 4.4-3 6-3.8 5.1-2.6 18-15.7 22.1-22.4.9-1.5 2.8-4.4 4-6.3 1.3-1.9 3.8-7.6 5.6-12.5l3.3-9v-42l-3.3-8.8c-5.3-13.9-13.9-26-25.3-35.6-9.8-8.3-16.2-11.9-27.5-15.7-10.1-3.4-10.3-3.4-27.5-3.3-9.6.1-18.5.4-19.9.6zm32.2 30.8c18.3 3.8 36.5 22.2 40.5 40.8 2.5 12 .3 31.2-4.2 36.7-.7.8-2.2 3.3-3.3 5.5-4.5 8.8-19.5 20-30.7 23-11.1 2.9-30 1.6-37.7-2.6-1.4-.8-4.4-2.4-6.8-3.7-5.4-3-14.2-11.8-17.2-17.2-1.3-2.4-2.9-5.4-3.7-6.8-4.2-7.7-5.5-26.6-2.6-37.7 3-11.2 14.2-26.2 23-30.7 2.2-1.1 4.7-2.6 5.5-3.3 1.6-1.3 9.7-4.1 14-4.8 5.6-1 16.9-.6 23.2.8z"/><path d="M384.5 299.7c-10.7 2.3-19.9 8.2-26.6 17.1-7.2 9.5-7.6 16.7-1.2 19.3 1.6.6 3.7 1.6 4.9 2.1 2.8 1.3 8.8-2.3 10.4-6.2 1.7-4.2 9.1-10.7 13.6-11.9 2.2-.6 6.2-1.1 9.1-1.1 6.6 0 10.8-3.2 11.8-9 .9-5.2 0-7.7-3.5-9.5-2.8-1.4-13.6-1.9-18.5-.8zM141.5 290.5l-2.5 2.4v198.2l2.5 2.4 2.4 2.5h54.2l2.4-2.5 2.5-2.4V292.9l-2.5-2.4-2.4-2.5h-54.2l-2.4 2.5zM45.5 322.5l-2.5 2.4v166.2l2.5 2.4 2.4 2.5h54.2l2.4-2.5 2.5-2.4V324.9l-2.5-2.4-2.4-2.5H47.9l-2.4 2.5z"/></g></svg>